HIERARCHY
ROOT Hips
{
  OFFSET 265.287 66.7526 -254.649
  CHANNELS 6 Xposition Yposition Zposition Zrotation Xrotation Yrotation
  JOINT LeftUpLeg
  {
    OFFSET 8.64259 1.95398 -2.38835
    CHANNELS 3 Zrotation Xrotation Yrotation
    JOINT LeftLeg
    {
      OFFSET 43.7702 0 0
      CHANNELS 3 Zrotation Xrotation Yrotation
      JOINT LeftFoot
      {
        OFFSET 40.6238 0 0
        CHANNELS 3 Zrotation Xrotation Yrotation
        JOINT LeftToeBase
        {
          OFFSET 12.7242 0 0
          CHANNELS 3 Zrotation Xrotation Yrotation
          End Site
          {
            OFFSET 0 0 0
          }
        }
      }
    }
  }
  JOINT RightUpLeg
  {
    OFFSET -8.2249 1.95398 -2.59336
    CHANNELS 3 Zrotation Xrotation Yrotation
    JOINT RightLeg
    {
      OFFSET 43.5653 0 0
      CHANNELS 3 Zrotation Xrotation Yrotation
      JOINT RightFoot
      {
        OFFSET 40.6238 0 0
        CHANNELS 3 Zrotation Xrotation Yrotation
        JOINT RightToeBase
        {
          OFFSET 12.7242 0 0
          CHANNELS 3 Zrotation Xrotation Yrotation
          End Site
          {
            OFFSET 0 0 0
          }
        }
      }
    }
  }
  JOINT Spine
  {
    OFFSET 0.165834 0.87714 6.61349
    CHANNELS 3 Zrotation Xrotation Yrotation
    JOINT Spine1
    {
      OFFSET 7.38963 1.71661e-005 0
      CHANNELS 3 Zrotation Xrotation Yrotation
      JOINT Spine2
      {
        OFFSET 11.9445 1.14441e-005 0
        CHANNELS 3 Zrotation Xrotation Yrotation
        JOINT Spine3
        {
          OFFSET 14.7254 4.19617e-005 0
          CHANNELS 3 Zrotation Xrotation Yrotation
          JOINT Spine4
          {
            OFFSET 10.9679 0 0
            CHANNELS 3 Zrotation Xrotation Yrotation
            JOINT RightShoulder
            {
              OFFSET 2.46616 -1.6653 3.69651
              CHANNELS 3 Zrotation Xrotation Yrotation
              JOINT RightArm
              {
                OFFSET 13.0012 0 0
                CHANNELS 3 Zrotation Xrotation Yrotation
                JOINT RightForeArm
                {
                  OFFSET 28.7848 1.52588e-005 0
                  CHANNELS 3 Zrotation Xrotation Yrotation
                  JOINT RightHand
                  {
                    OFFSET 26.5688 1.52588e-005 0
                    CHANNELS 3 Zrotation Xrotation Yrotation
                    End Site
                    {
                      OFFSET 0 0 0
                    }
                  }
                }
              }
            }
            JOINT LeftShoulder
            {
              OFFSET 2.38034 -1.29275 -3.7523
              CHANNELS 3 Zrotation Xrotation Yrotation
              JOINT LeftArm
              {
                OFFSET 16.3182 6.10351e-005 0
                CHANNELS 3 Zrotation Xrotation Yrotation
                JOINT LeftForeArm
                {
                  OFFSET 27.0901 0 0
                  CHANNELS 3 Zrotation Xrotation Yrotation
                  JOINT LeftHand
                  {
                    OFFSET 24.5451 1.52588e-005 0
                    CHANNELS 3 Zrotation Xrotation Yrotation
                    End Site
                    {
                      OFFSET 0 0 0
                    }
                  }
                }
              }
            }
            JOINT Neck
            {
              OFFSET 5.0226 -0.0266342 0
              CHANNELS 3 Zrotation Xrotation Yrotation
              JOINT Head
              {
                OFFSET 6.69364 2.86102e-005 0
                CHANNELS 3 Zrotation Xrotation Yrotation
                End Site
                {
                  OFFSET 0 0 0
                }
              }
            }
          }
        }
      }
    }
  }
}
MOTION
Frames:	9
Frame Time:	0.0416667
261.643 84.9126 -265.611 154.324 -6.93451 -176.201 -157.379 41.7005 -164.448 103.644 15.6907 169.254 28.705 -18.2028 10.0928 37.3797 -34.7367 -157.506 146.311 -41.3615 51.5752 -24.6725 -47.0863 32.2971 30.1337 17.8871 -11.3786 2.4114 -47.3937 116.53 -5.51021 12.845 -87.6511 1.30952 -10.1042 4.25755 -10.3303 -9.90717 4.70131 -33.1785 -10.9116 0.991002 -13.1658 -10.9116 0.991003 116.969 -28.9485 -51.6883 54.1033 -0.390739 -11.9531 -2.7601 83.3855 -0.0131049 2.29254 0.246383 5.5686 -77.5554 -52.3051 97.3027 -22.6602 9.02612 83.4507 35.9595 4.82121 -105.866 -17.8014 -8.13551 50.505 -86.2028 9.97121 -13.7161 35.742 24.4868 60.4287 
261.832 84.8903 -265.787 154.308 -6.73435 -176.176 -158.045 41.7078 -163.904 103.736 16.3522 168.939 28.9934 -18.2101 10.1744 37.1865 -34.8776 -158.12 146.448 -41.433 51.4928 -25.2053 -47.0026 32.5588 30.1022 17.7707 -11.2957 0.679311 -48.004 114.725 -5.51411 12.868 -87.6421 1.26376 -10.1092 4.2684 -10.376 -9.91163 4.71237 -33.2245 -10.9196 0.999833 -13.2118 -10.9196 0.999827 117.013 -29.2154 -51.7247 53.8089 -0.552572 -11.7751 -2.74906 84.0289 -0.0145111 2.20966 0.246221 5.94408 -77.3737 -52.0394 97.5733 -22.7749 9.10725 83.1948 36.303 4.85345 -105.927 -17.7071 -8.10174 50.5979 -86.146 9.97331 -13.6956 35.6796 24.5084 60.5284 
262.378 84.8239 -266.298 154.26 -6.15572 -176.103 -159.977 41.7152 -162.352 104.088 18.2943 167.981 29.8751 -18.2153 10.3883 36.5431 -35.8972 -159.852 146.836 -41.6636 51.2715 -26.7592 -46.7651 33.2636 30.0101 17.4564 -11.0281 -4.52775 -49.465 109.22 -5.52558 12.9343 -87.6162 1.13102 -10.1239 4.29964 -10.5088 -9.92498 4.74422 -33.3579 -10.943 1.02507 -13.3453 -10.943 1.02507 117.143 -29.9954 -51.8324 52.952 -1.02296 -11.2336 -2.72382 85.8414 -0.020816 1.95002 0.243226 6.96084 -76.8586 -51.2706 98.3494 -23.1035 9.33873 82.4466 37.3144 4.94191 -106.108 -17.4341 -8.00157 50.8588 -85.9786 9.98393 -13.6363 35.4992 24.5707 60.8175 
263.249 84.7105 -267.117 154.177 -5.23564 -175.985 -163.061 41.6938 -159.95 104.933 21.4476 166.294 31.4181 -18.1752 10.6444 35.0486 -40.0157 -162.508 147.427 -42.1004 50.9736 -29.2716 -46.3995 34.2238 29.8704 17.0235 -10.5213 -13.148 -50.8069 99.8617 -5.54445 13.0405 -87.5751 0.918804 -10.1487 4.349 -10.721 -9.94762 4.79461 -33.5713 -10.9815 1.06447 -13.5587 -10.9815 1.06447 117.348 -31.2596 -52.0102 51.5776 -1.77353 -10.2824 -4.25236 88.587 1.50407 1.48085 0.220557 8.37704 -76.0699 -50.0502 99.566 -23.613 9.69796 81.2336 38.9796 5.06554 -106.418 -17.0015 -7.83626 51.2494 -85.7058 10.0026 -13.5406 35.2106 24.6692 61.2797 
264.407 84.5413 -268.219 154.054 -4.01346 -175.826 -167.192 41.62 -156.9 106.656 25.6945 163.676 33.6981 -18.0375 10.7858 30.7675 -52.9932 -166.59 148.167 -42.8052 50.6831 -32.6956 -45.9224 35.2056 29.7291 16.5658 -9.71162 -24.3444 -50.7334 87.1939 -5.57081 13.1825 -87.5203 0.634811 -10.1843 4.414 -11.005 -9.98035 4.86113 -33.8571 -11.0349 1.11548 -13.8444 -11.0349 1.11549 117.619 -32.9818 -52.258 49.7414 -2.76577 -8.82595 161.896 87.9116 -164.721 0.768962 0.155498 9.9295 -75.0785 -48.4403 101.149 -24.2619 10.1538 79.5805 41.3006 5.19085 -106.876 -16.4379 -7.60893 51.7152 -85.3323 10.0306 -13.4104 34.8235 24.7989 61.8981 
265.816 84.3034 -269.579 153.884 -2.52806 -175.628 -172.252 41.5 -153.394 109.791 30.6897 159.798 36.7334 -17.7943 10.6248 -55.0762 -84.4198 112.446 149.007 -43.8376 50.4909 -37.016 -45.3108 35.9742 29.6878 16.162 -8.55197 -35.9699 -48.1697 73.0764 -5.60477 13.3566 -87.4537 0.286461 -10.2315 4.49215 -11.3532 -10.024 4.94127 -34.2077 -11.1033 1.17543 -14.1951 -11.1033 1.17543 117.943 -35.1366 -52.5782 47.5187 -3.94483 -6.71865 137.907 82.3925 -140.748 -0.202608 0.032829 11.4084 -73.9588 -46.5105 103.017 -25.0052 10.6621 77.51 44.2828 5.27211 -107.499 -15.7858 -7.32853 52.183 -84.8616 10.0699 -13.2471 34.3467 24.9547 62.656 
267.439 83.9804 -271.171 153.66 -0.817873 -175.391 -178.147 41.3786 -149.634 115.38 36.5126 153.973 40.2561 -16.9299 9.43699 -153.107 -18.0573 31.1272 149.899 -45.2544 50.4832 -42.2834 -44.4359 36.2896 29.9203 15.8516 -7.00127 -45.5671 -42.8284 59.7098 -5.64645 13.5593 -87.3767 -0.119047 -10.2911 4.58084 -11.7586 -10.0797 5.03252 -34.6163 -11.1867 1.24157 -14.6036 -11.1867 1.24157 118.306 -37.6956 -52.9742 45.0167 -5.22531 -3.75463 131.687 75.6523 -134.413 -1.43421 -0.154915 12.6712 -72.7809 -44.3406 105.089 -25.7986 11.1675 75.0487 47.9221 5.24905 -108.299 -15.1094 -7.01469 52.5547 -84.2972 10.1228 -13.0518 33.7888 25.1311 63.5368 
269.24 83.5551 -272.969 153.376 1.07916 -175.114 175.203 41.3555 -145.788 124.054 41.6816 145.698 44.112 -15.9513 7.36073 179.687 36.5721 49.3249 150.803 -47.1181 50.7238 -48.7654 -42.84 35.824 30.6669 15.5628 -4.89689 -52.0854 -35.0986 47.9385 -5.69587 13.787 -87.2912 -0.574811 -10.3638 4.6773 -12.2142 -10.1481 5.13212 -35.0758 -11.285 1.31107 -15.0631 -11.285 1.31106 118.692 -40.621 -53.4471 42.3831 -6.46874 0.348037 127.33 67.746 -129.77 -2.91618 -0.406307 13.6319 -71.6036 -42.0201 107.289 -26.602 11.6054 72.2303 52.1896 5.04541 -109.27 -14.5038 -6.70331 52.6978 -83.6424 10.1919 -12.8259 33.1586 25.3232 64.5232 
271.188 83.0136 -274.95 153.024 3.12767 -174.794 167.837 41.568 -141.961 135.251 44.3836 135.522 48.0389 -15.5721 4.88823 146.358 52.3704 76.9423 151.73 -49.509 51.2489 -57.5317 -38.8661 33.8514 32.0981 14.8084 -1.2827 -56.1938 -25.2187 36.9513 -5.7531 14.0365 -87.1989 -1.0745 -10.4501 4.77879 -12.7136 -10.2299 5.23735 -35.5801 -11.3976 1.38111 -15.5674 -11.3976 1.38112 119.082 -43.8645 -53.997 39.7981 -7.46676 5.92773 123.348 58.514 -125.269 -4.63541 -0.711968 14.2465 -70.4712 -39.6389 109.547 -27.3865 11.9051 69.0943 57.0156 4.57297 -110.376 -14.0969 -6.44719 52.4461 -82.9007 10.2797 -12.5703 32.4652 25.5263 65.5982 
